<mxfile host="app.diagrams.net" agent="Mozilla/5.0 (Windows NT 10.0; Win64; x64) AppleWebKit/537.36 (KHTML, like Gecko) Chrome/138.0.0.0 Safari/537.36" version="27.1.6">
  <diagram name="Page-1" id="9cGEANEjP_r45NFGYWgD">
    <mxGraphModel dx="2916" dy="1103" grid="1" gridSize="10" guides="1" tooltips="1" connect="1" arrows="1" fold="1" page="1" pageScale="1" pageWidth="850" pageHeight="1100" math="0" shadow="0" adaptiveColors="none">
      <root>
        <mxCell id="0" />
        <mxCell id="1" parent="0" />
        <mxCell id="JmtaJUMP6tBzRfnjLd_W-1" value="&lt;font&gt;Untrusted Network&lt;/font&gt;" style="sketch=0;aspect=fixed;pointerEvents=1;shadow=0;dashed=0;html=1;labelPosition=center;verticalLabelPosition=bottom;verticalAlign=top;align=center;shape=mxgraph.mscae.enterprise.internet;fillColor=#dae8fc;strokeColor=#6c8ebf;fontSize=14;fontStyle=1" parent="1" vertex="1">
          <mxGeometry x="30" y="467" width="150" height="93" as="geometry" />
        </mxCell>
        <mxCell id="JmtaJUMP6tBzRfnjLd_W-2" value="&lt;font&gt;Untrusted Network&lt;/font&gt;" style="sketch=0;aspect=fixed;pointerEvents=1;shadow=0;dashed=0;html=1;strokeColor=#6c8ebf;labelPosition=center;verticalLabelPosition=bottom;verticalAlign=top;align=center;fillColor=#dae8fc;shape=mxgraph.mscae.enterprise.internet;fontSize=14;fontStyle=1" parent="1" vertex="1">
          <mxGeometry x="540" y="467" width="150" height="93" as="geometry" />
        </mxCell>
        <mxCell id="JmtaJUMP6tBzRfnjLd_W-7" value="&lt;font&gt;&lt;span&gt;Subordinate MDM Managed Device&lt;/span&gt;&lt;/font&gt;" style="sketch=0;aspect=fixed;pointerEvents=1;shadow=0;dashed=0;html=1;strokeColor=#6c8ebf;labelPosition=center;verticalLabelPosition=bottom;verticalAlign=top;align=center;fillColor=#dae8fc;shape=mxgraph.azure.mobile;fontSize=14;fontStyle=1" parent="1" vertex="1">
          <mxGeometry x="-213" y="400" width="56" height="80" as="geometry" />
        </mxCell>
        <mxCell id="JmtaJUMP6tBzRfnjLd_W-8" value="&lt;font&gt;&lt;span&gt;Subordinate MDM Managed Device&lt;/span&gt;&lt;/font&gt;" style="sketch=0;aspect=fixed;pointerEvents=1;shadow=0;dashed=0;html=1;strokeColor=#6c8ebf;labelPosition=center;verticalLabelPosition=bottom;verticalAlign=top;align=center;fillColor=#dae8fc;shape=mxgraph.mscae.enterprise.workstation_client;fontSize=14;fontStyle=1" parent="1" vertex="1">
          <mxGeometry x="-240" y="560" width="110" height="110" as="geometry" />
        </mxCell>
        <mxCell id="JmtaJUMP6tBzRfnjLd_W-14" value="" style="endArrow=classic;startArrow=classic;html=1;rounded=0;fillColor=#dae8fc;strokeColor=#6c8ebf;fontSize=14;fontStyle=1" parent="1" edge="1">
          <mxGeometry width="50" height="50" relative="1" as="geometry">
            <mxPoint x="700" y="520" as="sourcePoint" />
            <mxPoint x="800" y="520" as="targetPoint" />
          </mxGeometry>
        </mxCell>
        <mxCell id="JmtaJUMP6tBzRfnjLd_W-15" value="" style="endArrow=classic;startArrow=classic;html=1;rounded=0;fillColor=#dae8fc;strokeColor=#6c8ebf;fontSize=14;fontStyle=1" parent="1" edge="1">
          <mxGeometry width="50" height="50" relative="1" as="geometry">
            <mxPoint x="420" y="520" as="sourcePoint" />
            <mxPoint x="520" y="520" as="targetPoint" />
          </mxGeometry>
        </mxCell>
        <mxCell id="JmtaJUMP6tBzRfnjLd_W-16" value="" style="endArrow=classic;startArrow=classic;html=1;rounded=0;fillColor=#dae8fc;strokeColor=#6c8ebf;fontSize=14;fontStyle=1" parent="1" edge="1">
          <mxGeometry width="50" height="50" relative="1" as="geometry">
            <mxPoint x="190" y="520" as="sourcePoint" />
            <mxPoint x="290" y="520" as="targetPoint" />
          </mxGeometry>
        </mxCell>
        <mxCell id="JmtaJUMP6tBzRfnjLd_W-17" value="" style="endArrow=classic;startArrow=classic;html=1;rounded=0;fillColor=#dae8fc;strokeColor=#6c8ebf;fontSize=14;fontStyle=1" parent="1" edge="1">
          <mxGeometry width="50" height="50" relative="1" as="geometry">
            <mxPoint x="-110" y="440" as="sourcePoint" />
            <mxPoint y="520" as="targetPoint" />
          </mxGeometry>
        </mxCell>
        <mxCell id="JmtaJUMP6tBzRfnjLd_W-18" value="" style="endArrow=classic;startArrow=classic;html=1;rounded=0;fillColor=#dae8fc;strokeColor=#6c8ebf;fontSize=14;fontStyle=1" parent="1" edge="1">
          <mxGeometry width="50" height="50" relative="1" as="geometry">
            <mxPoint x="-110" y="640" as="sourcePoint" />
            <mxPoint y="560" as="targetPoint" />
          </mxGeometry>
        </mxCell>
        <mxCell id="JmtaJUMP6tBzRfnjLd_W-27" value="Untrusted Network" style="sketch=0;aspect=fixed;pointerEvents=1;shadow=0;dashed=0;html=1;labelPosition=center;verticalLabelPosition=bottom;verticalAlign=top;align=center;shape=mxgraph.mscae.enterprise.internet;fillColor=#dae8fc;strokeColor=#6c8ebf;fontSize=14;fontStyle=1" parent="1" vertex="1">
          <mxGeometry x="540" y="707" width="150" height="93" as="geometry" />
        </mxCell>
        <mxCell id="JmtaJUMP6tBzRfnjLd_W-28" value="Primary MDM Managed Device" style="sketch=0;aspect=fixed;pointerEvents=1;shadow=0;dashed=0;html=1;strokeColor=#6c8ebf;labelPosition=center;verticalLabelPosition=bottom;verticalAlign=top;align=center;fillColor=#dae8fc;shape=mxgraph.azure.mobile;fontSize=14;fontStyle=1" parent="1" vertex="1">
          <mxGeometry x="310" y="640" width="56" height="80" as="geometry" />
        </mxCell>
        <mxCell id="JmtaJUMP6tBzRfnjLd_W-29" value="Primary MDM Managed Device" style="sketch=0;aspect=fixed;pointerEvents=1;shadow=0;dashed=0;html=1;strokeColor=#6c8ebf;labelPosition=center;verticalLabelPosition=bottom;verticalAlign=top;align=center;fillColor=#dae8fc;shape=mxgraph.mscae.enterprise.workstation_client;fontSize=14;fontStyle=1" parent="1" vertex="1">
          <mxGeometry x="283" y="800" width="110" height="110" as="geometry" />
        </mxCell>
        <mxCell id="JmtaJUMP6tBzRfnjLd_W-30" value="" style="endArrow=classic;startArrow=classic;html=1;rounded=0;fillColor=#dae8fc;strokeColor=#6c8ebf;fontSize=14;fontStyle=1" parent="1" edge="1">
          <mxGeometry width="50" height="50" relative="1" as="geometry">
            <mxPoint x="700" y="700" as="sourcePoint" />
            <mxPoint x="800" y="600" as="targetPoint" />
          </mxGeometry>
        </mxCell>
        <mxCell id="JmtaJUMP6tBzRfnjLd_W-31" value="" style="endArrow=classic;startArrow=classic;html=1;rounded=0;fillColor=#dae8fc;strokeColor=#6c8ebf;fontSize=14;fontStyle=1" parent="1" edge="1">
          <mxGeometry width="50" height="50" relative="1" as="geometry">
            <mxPoint x="410" y="690" as="sourcePoint" />
            <mxPoint x="510" y="760" as="targetPoint" />
          </mxGeometry>
        </mxCell>
        <mxCell id="JmtaJUMP6tBzRfnjLd_W-32" value="" style="endArrow=classic;startArrow=classic;html=1;rounded=0;fillColor=#dae8fc;strokeColor=#6c8ebf;fontSize=14;fontStyle=1" parent="1" edge="1">
          <mxGeometry width="50" height="50" relative="1" as="geometry">
            <mxPoint x="410" y="860" as="sourcePoint" />
            <mxPoint x="510" y="800" as="targetPoint" />
          </mxGeometry>
        </mxCell>
        <mxCell id="tZ3R7bNkKlJCWEzYY543-1" value="Subordinate MDM Server" style="sketch=0;aspect=fixed;pointerEvents=1;shadow=0;dashed=0;html=1;strokeColor=#6c8ebf;labelPosition=center;verticalLabelPosition=bottom;verticalAlign=top;align=center;fillColor=#dae8fc;shape=mxgraph.mscae.enterprise.server_generic;fontSize=14;fontStyle=1" vertex="1" parent="1">
          <mxGeometry x="320" y="440.46" width="57.38" height="119.54" as="geometry" />
        </mxCell>
        <mxCell id="tZ3R7bNkKlJCWEzYY543-2" value="Primary MDM Server" style="sketch=0;aspect=fixed;pointerEvents=1;shadow=0;dashed=0;html=1;strokeColor=#6c8ebf;labelPosition=center;verticalLabelPosition=bottom;verticalAlign=top;align=center;fillColor=#dae8fc;shape=mxgraph.mscae.enterprise.server_generic;fontSize=14;fontStyle=1" vertex="1" parent="1">
          <mxGeometry x="840" y="440.46" width="57.38" height="119.54" as="geometry" />
        </mxCell>
      </root>
    </mxGraphModel>
  </diagram>
</mxfile>
